<svg width="228" height="32" viewBox="0 0 228 32" fill="none" xmlns="http://www.w3.org/2000/svg">
<g clip-path="url(#clip0_104_535)">
<path d="M17.2541 24.6153H8.62703V11.0768H0V2.46143H17.2541V24.6153ZM34.5081 24.6153H24.6486L33.8919 2.46143H43.7514L34.5081 24.6153Z" fill="white"/>
<path d="M24.6487 12.3076C27.3713 12.3076 29.5785 10.1034 29.5785 7.3845C29.5785 4.66556 27.3713 2.46143 24.6487 2.46143C21.9262 2.46143 19.719 4.66556 19.719 7.3845C19.719 10.1034 21.9262 12.3076 24.6487 12.3076Z" fill="white"/>
<path d="M53.972 24.6447H58.5345V6.79241H64.5031V2.48595H48.0649V6.79364H53.972V24.6447ZM64.5093 24.6447H68.7908V17.1863C68.7908 14.5955 70.1341 13.0349 72.1676 13.0349C72.8849 13.0349 73.4481 13.1592 74.1038 13.3783V9.03979C73.637 8.905 73.1525 8.84192 72.6668 8.85272C70.9167 8.85272 69.3232 10.0072 68.7908 11.5358V9.04103H64.5093V24.6447ZM82.3216 24.9881C84.4784 24.9881 86.1027 23.8952 86.8225 22.8958V24.6435H91.1039V9.04103H86.8225V10.7887C86.1027 9.79056 84.4784 8.69764 82.3216 8.69764C78.1659 8.69764 74.9776 12.4429 74.9776 16.8429C74.9776 21.2441 78.1659 24.9893 82.3229 24.9893L82.3216 24.9881ZM83.2287 21.0866C80.8526 21.0866 79.2898 19.3081 79.2898 16.8429C79.2898 14.3764 80.8526 12.5967 83.2287 12.5967C85.6036 12.5967 87.1663 14.3764 87.1663 16.8429C87.1663 19.3081 85.6036 21.0866 83.2287 21.0866ZM101.297 24.9881C103.454 24.9881 105.078 23.8952 105.797 22.8958V24.6435H110.078V1.23918H105.797V10.7899C105.078 9.79056 103.454 8.69764 101.297 8.69764C97.1404 8.69764 93.9521 12.4429 93.9521 16.8429C93.9521 21.2441 97.1404 24.9893 101.297 24.9893V24.9881ZM102.203 21.0866C99.8283 21.0866 98.2656 19.3081 98.2656 16.8429C98.2656 14.3764 99.8283 12.5967 102.203 12.5967C104.578 12.5967 106.141 14.3764 106.141 16.8429C106.141 19.3081 104.578 21.0866 102.203 21.0866ZM116.053 6.66072C116.413 6.66381 116.769 6.59592 117.102 6.46095C117.435 6.326 117.738 6.12663 117.994 5.87432C118.25 5.62201 118.453 5.32173 118.592 4.99074C118.731 4.65975 118.803 4.30457 118.804 3.94564C118.803 3.58671 118.731 3.23154 118.592 2.90055C118.453 2.56955 118.25 2.26927 117.994 2.01696C117.738 1.76466 117.435 1.56528 117.102 1.43033C116.769 1.29536 116.413 1.22748 116.053 1.23056C115.334 1.23635 114.646 1.52426 114.137 2.03219C113.629 2.54011 113.34 3.22735 113.335 3.94564C113.34 4.66393 113.629 5.35117 114.137 5.85909C114.646 6.36702 115.334 6.65493 116.053 6.66072ZM113.929 24.6447H118.21V9.21826H113.929V24.6447ZM122.008 24.6447H126.29V17.0299C126.29 14.033 127.759 12.5979 129.759 12.5979C131.54 12.5979 132.51 13.9715 132.51 16.2176V24.6447H136.791V15.5001C136.791 11.4435 134.541 8.69641 130.76 8.69641C128.728 8.69641 127.134 9.57026 126.29 10.8183V9.03979H122.008V24.6447ZM147.686 20.4921C145.529 20.4921 143.718 18.8687 143.718 16.497C143.718 14.0946 145.529 12.5019 147.686 12.5019C149.843 12.5019 151.655 14.0946 151.655 16.497C151.655 18.8687 149.843 20.4921 147.686 20.4921ZM147.186 31.3844C151.968 31.3844 155.593 28.9499 155.593 23.3315V8.94503H151.312V10.6927C150.468 9.47672 148.779 8.60287 146.78 8.60287C142.686 8.60287 139.404 12.0983 139.404 16.4983C139.404 20.8675 142.686 24.3629 146.78 24.3629C148.781 24.3629 150.468 23.4583 151.312 22.3038V23.3647C151.312 25.8619 149.656 27.6404 147.124 27.6404C145.374 27.6404 143.624 27.0472 142.249 25.7056L139.905 28.8884C141.685 30.6053 144.467 31.3844 147.186 31.3844ZM164.646 24.6447H168.676L177.865 2.48595H172.865L166.677 17.8718L160.395 2.48595H155.489L164.646 24.6447ZM181.794 6.48103C182.154 6.48394 182.51 6.41594 182.842 6.2809C183.175 6.14587 183.478 5.94648 183.734 5.69418C183.989 5.44189 184.192 5.14167 184.331 4.81075C184.471 4.47984 184.542 4.12478 184.543 3.76595C184.542 3.40712 184.471 3.05205 184.331 2.72115C184.192 2.39023 183.989 2.09001 183.734 1.83771C183.478 1.58542 183.175 1.38602 182.842 1.25099C182.51 1.11596 182.154 1.04795 181.794 1.05087C180.325 1.05087 179.074 2.26687 179.074 3.76595C179.074 5.26379 180.325 6.48103 181.794 6.48103ZM179.668 24.6447H183.949V9.03979H179.668V24.6447ZM195.03 24.9881C198.311 24.9881 200.811 23.6146 202.28 21.4927L199.092 19.121C198.374 20.2127 197.03 21.0866 195.061 21.0866C192.999 21.0866 191.155 19.9321 190.905 17.841H202.592C202.686 17.185 202.655 16.7481 202.655 16.3739C202.655 11.2872 199.061 8.69641 194.967 8.69641C190.217 8.69641 186.748 12.2226 186.748 16.8416C186.748 21.7733 190.374 24.9881 195.03 24.9881ZM191.06 14.9389C191.467 13.0349 193.248 12.2226 194.843 12.2226C196.436 12.2226 197.999 13.0656 198.374 14.9389H191.06ZM218.695 24.6447H222.946L228.102 9.03979H223.508L220.571 19.0263L217.383 9.03979H214.102L210.946 19.0263L207.977 9.03979H203.413L208.602 24.6447H212.851L215.758 15.7807L218.695 24.6447Z" fill="white"/>
</g>
<defs>
<clipPath id="clip0_104_535">
<rect width="228" height="32" fill="white"/>
</clipPath>
</defs>
</svg>
